<?xml version="1.0" standalone="no"?>
<svg viewBox="0 0 200 200" xmlns="http://www.w3.org/2000/svg">
  <path fill="rgb(213 238 230)" d="M51,-64.8C63.4,-61.3,68.8,-42.7,65.6,-27.3C62.3,-11.9,50.5,0.3,46.6,16.1C42.8,31.8,46.9,51.1,40.5,65.3C34.1,79.4,17,88.5,2.8,84.6C-11.3,80.7,-22.7,63.7,-38.2,52.5C-53.7,41.3,-73.3,35.7,-78.8,24.3C-84.3,12.9,-75.7,-4.4,-69.5,-22.4C-63.4,-40.3,-59.9,-58.9,-48.7,-62.8C-37.5,-66.7,-18.8,-55.9,0.3,-56.3C19.3,-56.7,38.7,-68.3,51,-64.8Z" transform="translate(100 100)" />
</svg>
